<mxfile host="app.diagrams.net" modified="2022-05-04T15:29:28.069Z" agent="5.0 (Windows NT 10.0; Win64; x64) AppleWebKit/537.36 (KHTML, like Gecko) Chrome/100.0.4896.127 Safari/537.36" etag="01HbEkvGOEgYroD1SnEO" version="17.5.0" type="github">
  <diagram id="23lGutZPLY1jcIs7pQBW" name="Page-1">
    <mxGraphModel dx="1332" dy="739" grid="1" gridSize="10" guides="1" tooltips="1" connect="1" arrows="1" fold="1" page="1" pageScale="1" pageWidth="850" pageHeight="1100" math="1" shadow="0">
      <root>
        <mxCell id="0" />
        <mxCell id="1" parent="0" />
        <mxCell id="mOi0ZYPESidnNnmCrNW_-1" value="&lt;font style=&quot;font-size: 40px&quot;&gt;$$\mathcal{L}$$&lt;/font&gt;" style="text;html=1;align=center;verticalAlign=middle;resizable=0;points=[];autosize=1;strokeColor=none;fillColor=none;" vertex="1" parent="1">
          <mxGeometry x="30" y="55" width="300" height="30" as="geometry" />
        </mxCell>
        <mxCell id="mOi0ZYPESidnNnmCrNW_-2" value="&lt;font style=&quot;font-size: 40px&quot;&gt;$$\mathcal{S}$$&lt;/font&gt;" style="text;html=1;align=center;verticalAlign=middle;resizable=0;points=[];autosize=1;strokeColor=none;fillColor=none;" vertex="1" parent="1">
          <mxGeometry x="-72.5" y="308" width="310" height="30" as="geometry" />
        </mxCell>
        <mxCell id="mOi0ZYPESidnNnmCrNW_-3" value="&lt;font style=&quot;font-size: 40px&quot;&gt;$$\mathcal{U}$$&lt;/font&gt;" style="text;html=1;align=center;verticalAlign=middle;resizable=0;points=[];autosize=1;strokeColor=none;fillColor=none;" vertex="1" parent="1">
          <mxGeometry x="122.5" y="308" width="310" height="30" as="geometry" />
        </mxCell>
        <mxCell id="mOi0ZYPESidnNnmCrNW_-7" value="" style="endArrow=none;html=1;rounded=0;fontSize=40;strokeWidth=2;" edge="1" parent="1">
          <mxGeometry width="50" height="50" relative="1" as="geometry">
            <mxPoint x="140" y="90" as="sourcePoint" />
            <mxPoint x="220" y="90" as="targetPoint" />
          </mxGeometry>
        </mxCell>
        <mxCell id="mOi0ZYPESidnNnmCrNW_-9" value="LANGUAGE" style="text;html=1;align=center;verticalAlign=middle;resizable=0;points=[];autosize=1;strokeColor=none;fillColor=none;fontSize=20;" vertex="1" parent="1">
          <mxGeometry x="170" y="85" width="130" height="30" as="geometry" />
        </mxCell>
        <mxCell id="mOi0ZYPESidnNnmCrNW_-10" value="&lt;font style=&quot;font-size: 40px&quot;&gt;$$(\mathbb{Q},\mathbb{K})$$&lt;/font&gt;" style="text;html=1;align=center;verticalAlign=middle;resizable=0;points=[];autosize=1;strokeColor=none;fillColor=none;fontSize=20;" vertex="1" parent="1">
          <mxGeometry x="-90" y="150" width="540" height="40" as="geometry" />
        </mxCell>
        <mxCell id="mOi0ZYPESidnNnmCrNW_-11" value="KOST" style="text;html=1;align=center;verticalAlign=middle;resizable=0;points=[];autosize=1;strokeColor=none;fillColor=none;fontSize=20;" vertex="1" parent="1">
          <mxGeometry x="195" y="124" width="70" height="30" as="geometry" />
        </mxCell>
        <mxCell id="mOi0ZYPESidnNnmCrNW_-12" value="QUALITY" style="text;html=1;align=center;verticalAlign=middle;resizable=0;points=[];autosize=1;strokeColor=none;fillColor=none;fontSize=20;" vertex="1" parent="1">
          <mxGeometry x="111" y="185" width="100" height="30" as="geometry" />
        </mxCell>
        <mxCell id="mOi0ZYPESidnNnmCrNW_-13" value="&lt;font color=&quot;#ff0000&quot;&gt;$$\mathbb{V}$$&lt;/font&gt;" style="text;html=1;align=center;verticalAlign=middle;resizable=0;points=[];autosize=1;strokeColor=none;fillColor=none;fontSize=40;" vertex="1" parent="1">
          <mxGeometry x="-70" y="240" width="300" height="50" as="geometry" />
        </mxCell>
        <mxCell id="mOi0ZYPESidnNnmCrNW_-14" value="&lt;font color=&quot;#0e9c5e&quot;&gt;$$\mathbb{R}$$&lt;/font&gt;" style="text;html=1;align=center;verticalAlign=middle;resizable=0;points=[];autosize=1;strokeColor=none;fillColor=none;fontSize=40;" vertex="1" parent="1">
          <mxGeometry x="125" y="240" width="300" height="50" as="geometry" />
        </mxCell>
        <mxCell id="mOi0ZYPESidnNnmCrNW_-16" value="VIRTUAL" style="text;html=1;align=center;verticalAlign=middle;resizable=0;points=[];autosize=1;strokeColor=none;fillColor=none;fontSize=20;" vertex="1" parent="1">
          <mxGeometry x="25" y="220" width="100" height="30" as="geometry" />
        </mxCell>
        <mxCell id="mOi0ZYPESidnNnmCrNW_-17" value="REAL" style="text;html=1;align=center;verticalAlign=middle;resizable=0;points=[];autosize=1;strokeColor=none;fillColor=none;fontSize=20;" vertex="1" parent="1">
          <mxGeometry x="250" y="220" width="70" height="30" as="geometry" />
        </mxCell>
        <mxCell id="mOi0ZYPESidnNnmCrNW_-18" value="" style="endArrow=classic;html=1;rounded=0;fontSize=40;fontColor=#FF0000;strokeWidth=2;startArrow=none;" edge="1" parent="1" source="mOi0ZYPESidnNnmCrNW_-22">
          <mxGeometry width="50" height="50" relative="1" as="geometry">
            <mxPoint x="99" y="254.5" as="sourcePoint" />
            <mxPoint x="249" y="254.5" as="targetPoint" />
          </mxGeometry>
        </mxCell>
        <mxCell id="mOi0ZYPESidnNnmCrNW_-20" value="" style="endArrow=classic;html=1;rounded=0;fontSize=40;fontColor=#FF0000;strokeWidth=2;dashed=1;" edge="1" parent="1">
          <mxGeometry width="50" height="50" relative="1" as="geometry">
            <mxPoint x="250" y="274.5" as="sourcePoint" />
            <mxPoint x="100" y="274.5" as="targetPoint" />
          </mxGeometry>
        </mxCell>
        <mxCell id="mOi0ZYPESidnNnmCrNW_-21" value="" style="shape=waypoint;sketch=0;fillStyle=solid;size=6;pointerEvents=1;points=[];fillColor=none;resizable=0;rotatable=0;perimeter=centerPerimeter;snapToPoint=1;fontSize=40;fontColor=#FF0000;strokeColor=#0E9C5E;" vertex="1" parent="1">
          <mxGeometry x="230" y="254" width="40" height="40" as="geometry" />
        </mxCell>
        <mxCell id="mOi0ZYPESidnNnmCrNW_-22" value="" style="shape=waypoint;sketch=0;fillStyle=solid;size=6;pointerEvents=1;points=[];fillColor=none;resizable=0;rotatable=0;perimeter=centerPerimeter;snapToPoint=1;fontSize=40;fontColor=#FF0000;strokeColor=#FF0000;" vertex="1" parent="1">
          <mxGeometry x="80" y="235" width="40" height="40" as="geometry" />
        </mxCell>
        <mxCell id="mOi0ZYPESidnNnmCrNW_-23" value="" style="endArrow=none;html=1;rounded=0;fontSize=40;fontColor=#FF0000;strokeWidth=2;" edge="1" parent="1" target="mOi0ZYPESidnNnmCrNW_-22">
          <mxGeometry width="50" height="50" relative="1" as="geometry">
            <mxPoint x="99" y="254.5" as="sourcePoint" />
            <mxPoint x="249" y="254.5" as="targetPoint" />
          </mxGeometry>
        </mxCell>
        <mxCell id="mOi0ZYPESidnNnmCrNW_-24" value="&lt;font style=&quot;font-size: 10px&quot;&gt;|&lt;/font&gt;" style="text;html=1;align=center;verticalAlign=middle;resizable=0;points=[];autosize=1;strokeColor=none;fillColor=none;fontSize=40;fontColor=#FF0000;strokeWidth=2;" vertex="1" parent="1">
          <mxGeometry x="87" y="233" width="20" height="60" as="geometry" />
        </mxCell>
        <mxCell id="mOi0ZYPESidnNnmCrNW_-25" value="&lt;font style=&quot;font-size: 10px&quot; color=&quot;#0e9c5e&quot;&gt;|&lt;/font&gt;" style="text;html=1;align=center;verticalAlign=middle;resizable=0;points=[];autosize=1;strokeColor=none;fillColor=none;fontSize=40;fontColor=#FF0000;strokeWidth=2;" vertex="1" parent="1">
          <mxGeometry x="241" y="213" width="20" height="60" as="geometry" />
        </mxCell>
        <mxCell id="mOi0ZYPESidnNnmCrNW_-27" value="&lt;font style=&quot;font-size: 20px&quot; color=&quot;#000000&quot;&gt;&#39;&#39;&#39;&#39;&lt;/font&gt;" style="text;html=1;align=center;verticalAlign=middle;resizable=0;points=[];autosize=1;strokeColor=none;fillColor=none;fontSize=10;fontColor=#0E9C5E;" vertex="1" parent="1">
          <mxGeometry x="70.5" y="293" width="30" height="20" as="geometry" />
        </mxCell>
        <mxCell id="mOi0ZYPESidnNnmCrNW_-28" value="&lt;font style=&quot;font-size: 20px&quot; color=&quot;#000000&quot;&gt;&#39;&#39;&#39;&#39;&lt;/font&gt;" style="text;html=1;align=center;verticalAlign=middle;resizable=0;points=[];autosize=1;strokeColor=none;fillColor=none;fontSize=10;fontColor=#0E9C5E;" vertex="1" parent="1">
          <mxGeometry x="261.5" y="293" width="30" height="20" as="geometry" />
        </mxCell>
        <mxCell id="mOi0ZYPESidnNnmCrNW_-29" value="SYMBOL" style="text;html=1;align=center;verticalAlign=middle;resizable=0;points=[];autosize=1;strokeColor=none;fillColor=none;fontSize=20;" vertex="1" parent="1">
          <mxGeometry x="27.5" y="348" width="100" height="30" as="geometry" />
        </mxCell>
        <mxCell id="mOi0ZYPESidnNnmCrNW_-30" value="UNIVERSE" style="text;html=1;align=center;verticalAlign=middle;resizable=0;points=[];autosize=1;strokeColor=none;fillColor=none;fontSize=20;" vertex="1" parent="1">
          <mxGeometry x="217.5" y="348" width="120" height="30" as="geometry" />
        </mxCell>
      </root>
    </mxGraphModel>
  </diagram>
</mxfile>
